# xmcd
#
# Track frame offsets:
#	150
#	7137
#	11827
#	12652
#	26912
#	33362
#	40275
#	48472
#	57222
#	65077
#	74372
#	81652
#	86772
#	89475
#	100475
#	110375
#	121535
#	131307
#	139285
#	152785
#	160837
#	173062
#	179932
#	190100
#	198232
#	205340
#
# Disc length: 2770 seconds
#
# Revision: 1
# Processed by: cddbd v1.5.1PL0 Copyright (c) Steve Scherf et al.
# Submitted via: CDex 1.50Beta5
#
DISCID=7d0ad01a
DTITLE=和田光司 - デジモンフロンティア歌と音楽集
DYEAR=2002
DGENRE=
TTITLE0=和田光司/FIRE!!(TVサイズ)
TTITLE1=TVサントラ/アバン(フロンティア)
TTITLE2=TVサントラ/サブタイトル(フロンティア)
TTITLE3=TVサントラ/デジモンフロンティアのテーマ
TTITLE4=TVサントラ/炎のテーマ〜拓也のテーマ〜
TTITLE5=TVサントラ/光のテーマ〜輝二のテーマ〜
TTITLE6=TVサントラ/闇のテーマ〜輝一のテーマ〜
TTITLE7=TVサントラ/風のテーマ〜泉のテーマ〜
TTITLE8=TVサントラ/雷のテーマ〜順平のテーマ〜
TTITLE9=TVサントラ/氷のテーマ〜友樹のテーマ〜
TTITLE10=TVサントラ/ポコモン&ネーモンのテーマ
TTITLE11=TVサントラ/走る汽車〜ロコモンのテーマ〜
TTITLE12=TVサントラ/朽ちていくデジタルワールド
TTITLE13=TVサントラ/恐怖
TTITLE14=TVサントラ/悪の五闘士
TTITLE15=TVサントラ/伝説の十闘士
TTITLE16=TVサントラ/アタック・ザ・フロンティア
TTITLE17=和田光司/With The Will〜TVサイズ〜
TTITLE18=TVサントラ/With The Will〜BGM ver.〜
TTITLE19=TVサントラ/long time ago…,A
TTITLE20=TVサントラ/ルーチェモンのテーマ
TTITLE21=伊集加代/オファニモンのテーマ
TTITLE22=TVサントラ/セラフィモンのテーマ
TTITLE23=TVサントラ/デジコード!!甦る街〜
TTITLE24=和田光司/イノセント〜無邪気なままで〜
TTITLE25=TVサントラ/予告(FIRE!!)
EXTD=
EXTT0=
EXTT1=
EXTT2=
EXTT3=
EXTT4=
EXTT5=
EXTT6=
EXTT7=
EXTT8=
EXTT9=
EXTT10=
EXTT11=
EXTT12=
EXTT13=
EXTT14=
EXTT15=
EXTT16=
EXTT17=
EXTT18=
EXTT19=
EXTT20=
EXTT21=
EXTT22=
EXTT23=
EXTT24=
EXTT25=
PLAYORDER=
